<?xml version="1.0" standalone="no"?>
<!DOCTYPE svg PUBLIC "-//W3C//DTD SVG 20010904//EN" "http://www.w3.org/TR/2001/REC-SVG-20010904/DTD/svg10.dtd">
<svg version="1.0" xmlns="http://www.w3.org/2000/svg" width="626.000000pt" height="626.000000pt"
  viewBox="0 0 626.000000 626.000000" preserveAspectRatio="xMidYMid meet">

  <g transform="translate(0.000000,626.000000) scale(0.100000,-0.100000)">
    <path fill="#535353" d="M0 6145 c0 -132 -4 -128 97 -102 47 13 55 12 80 -4 27 -18 120 -45
128 -37 3 3 -4 23 -15 46 -22 45 -26 87 -10 97 14 9 50 81 50 100 0 13 -23 15
-165 15 l-165 0 0 -115z" />
    <path fill="rgba(0,0,0,0)" d="M350 6240 c0 -23 -25 -76 -47 -102 -18 -20 -6 -66 32 -122 13 -20 20
-38 15 -41 -15 -9 -115 12 -165 34 -34 15 -52 17 -82 10 -21 -5 -53 -9 -70 -9
l-33 0 0 -514 0 -513 62 -7 c145 -15 270 -116 292 -237 7 -42 -12 -115 -44
-159 -22 -30 -22 -32 -6 -75 10 -24 24 -49 32 -55 7 -7 14 -19 14 -28 0 -21
-94 -10 -157 19 -26 12 -52 21 -58 20 -5 -2 -38 -8 -73 -13 l-62 -11 0 -508 0
-507 52 -7 c111 -15 223 -77 266 -147 51 -82 49 -165 -3 -243 -23 -34 -25 -41
-14 -74 6 -20 22 -50 35 -68 14 -19 20 -34 14 -38 -15 -9 -119 13 -165 35 -33
16 -47 18 -75 10 -19 -6 -52 -10 -72 -10 l-38 0 0 -514 0 -513 62 -7 c145 -15
270 -116 292 -237 7 -41 -12 -115 -42 -157 -18 -24 -20 -35 -11 -64 5 -20 18
-47 29 -61 11 -14 20 -31 20 -37 0 -19 -99 -6 -157 21 -26 12 -52 21 -58 20
-5 -2 -38 -8 -73 -13 l-62 -11 0 -508 0 -507 53 -7 c111 -15 222 -77 266 -148
11 -18 25 -57 32 -85 l11 -52 424 0 424 0 0 33 c1 49 32 107 84 155 149 137
423 130 557 -15 46 -50 69 -98 69 -143 l0 -30 424 0 424 0 7 38 c26 146 163
243 345 245 189 2 329 -87 361 -229 l12 -54 424 0 423 0 0 30 c0 111 127 223
285 251 201 35 424 -96 425 -248 l0 -33 423 0 424 0 12 54 c28 123 139 209
304 232 l47 6 0 508 0 507 -65 11 c-269 44 -378 271 -208 434 50 49 135 86
211 94 l62 7 0 512 0 512 -59 6 c-142 12 -269 114 -296 234 -10 47 18 131 60
180 45 53 139 100 228 115 l67 11 0 507 0 507 -67 11 c-268 45 -377 279 -202
436 53 49 135 85 210 93 l59 6 0 512 0 512 -62 7 c-113 11 -224 81 -269 168
-10 21 -19 46 -19 58 0 20 -4 20 -430 20 -356 0 -430 -2 -430 -14 0 -7 -14
-40 -31 -74 -35 -68 -34 -86 6 -147 16 -23 23 -41 17 -47 -13 -13 -117 7 -165
32 -32 17 -45 19 -75 10 -55 -15 -171 -12 -233 6 -64 19 -139 64 -174 106 -13
16 -32 51 -42 78 l-18 50 -427 0 c-425 0 -428 0 -428 -20 0 -23 -25 -76 -47
-102 -18 -20 -6 -66 33 -123 19 -29 21 -37 10 -41 -22 -8 -127 15 -164 37 -29
17 -39 18 -78 8 -74 -19 -211 -6 -280 25 -92 42 -174 135 -174 196 0 20 -4 20
-430 20 -353 0 -430 -2 -430 -13 0 -8 -14 -42 -31 -76 -34 -69 -34 -87 6 -145
41 -60 37 -63 -56 -46 -29 6 -71 19 -92 30 -32 17 -45 19 -75 10 -55 -15 -171
-12 -233 6 -64 19 -139 64 -174 106 -13 16 -32 51 -42 78 l-18 50 -427 0
c-425 0 -428 0 -428 -20z m604 -509 c117 -52 181 -135 181 -237 0 -51 -5 -69
-31 -111 -30 -48 -31 -52 -18 -88 7 -21 22 -51 33 -66 12 -16 21 -31 21 -35 0
-13 -116 7 -165 30 -40 18 -57 21 -85 13 -19 -5 -77 -7 -130 -5 -79 3 -105 8
-155 31 -255 119 -227 392 50 484 64 20 238 12 299 -16z m1571 -4 c71 -33 130
-87 156 -142 33 -72 21 -170 -28 -227 -19 -21 -10 -65 23 -113 30 -45 30 -55
1 -55 -34 0 -139 29 -164 45 -17 11 -28 12 -53 4 -52 -19 -227 -7 -283 19
-118 53 -182 137 -182 237 0 106 72 193 198 242 53 20 77 23 167 20 90 -2 114
-7 165 -30z m1559 4 c117 -52 181 -135 181 -237 0 -51 -5 -69 -31 -111 -30
-48 -31 -52 -18 -88 7 -21 22 -51 33 -66 12 -16 21 -31 21 -35 0 -14 -116 7
-165 30 -38 17 -57 21 -80 14 -49 -14 -196 -10 -241 6 -144 50 -224 140 -224
251 0 111 84 205 225 252 64 20 238 12 299 -16z m1571 -4 c71 -33 130 -87 156
-142 33 -72 21 -170 -28 -227 -19 -21 -10 -65 23 -113 30 -45 30 -55 1 -55
-34 0 -139 29 -164 45 -17 11 -29 12 -49 5 -41 -16 -192 -13 -251 5 -109 33
-205 128 -218 218 -18 116 64 225 206 277 44 17 73 20 159 17 90 -2 114 -7
165 -30z m-3952 -768 c137 -45 223 -149 215 -261 -3 -40 -12 -68 -32 -98 -33
-49 -30 -82 9 -142 14 -21 25 -41 25 -44 0 -13 -110 5 -157 26 -45 20 -53 21
-125 9 -133 -21 -255 12 -344 93 -88 80 -107 172 -56 269 73 140 284 207 465
148z m1542 7 c128 -34 220 -120 239 -227 7 -41 -12 -115 -42 -157 -18 -24 -20
-35 -11 -64 5 -20 18 -47 29 -61 11 -14 20 -31 20 -37 0 -20 -105 -5 -161 22
-36 19 -53 22 -71 14 -12 -5 -66 -9 -118 -9 -75 0 -107 4 -153 22 -211 82
-267 280 -116 415 42 38 108 73 164 87 50 12 167 10 220 -5z m1586 -6 c164
-51 257 -200 204 -327 -9 -21 -23 -45 -32 -55 -20 -22 -12 -69 22 -120 14 -21
25 -41 25 -44 0 -13 -110 5 -157 26 -45 20 -53 21 -125 9 -133 -21 -255 12
-344 93 -88 80 -107 172 -56 269 73 139 281 206 463 149z m-3886 -791 c43 -16
76 -38 115 -78 93 -93 105 -192 35 -286 -21 -28 -21 -33 -9 -76 8 -25 23 -54
34 -64 11 -10 20 -22 20 -27 0 -17 -97 -7 -155 17 -55 23 -65 24 -118 14 -167
-33 -357 42 -416 165 -28 56 -28 136 0 192 34 71 115 130 219 160 66 20 201
11 275 -17z m1497 20 c108 -23 201 -87 238 -165 32 -64 25 -155 -14 -215 -27
-40 -28 -45 -16 -78 7 -20 21 -48 31 -63 11 -14 19 -29 19 -33 0 -15 -121 4
-165 25 -41 20 -50 21 -97 10 -68 -17 -178 -7 -253 21 -105 39 -195 149 -195
239 0 73 63 167 144 215 85 49 202 66 308 44z m1633 -20 c80 -30 166 -114 184
-181 18 -62 7 -126 -28 -175 -27 -37 -27 -40 -15 -84 8 -25 23 -54 34 -64 11
-10 20 -23 20 -28 0 -17 -123 -1 -168 22 -39 20 -48 21 -103 10 -158 -31 -332
30 -406 142 -38 58 -44 150 -13 213 36 75 119 135 225 163 71 18 197 10 270
-18z m1497 20 c108 -23 201 -87 238 -165 31 -64 25 -155 -14 -214 -32 -48 -30
-72 10 -132 13 -21 24 -41 24 -44 0 -14 -122 5 -163 25 -40 19 -50 20 -98 10
-71 -15 -180 -6 -254 22 -105 39 -195 149 -195 239 0 73 63 167 144 215 85 49
202 66 308 44z m-3867 -796 c93 -31 170 -95 199 -165 25 -59 20 -117 -15 -187
-34 -69 -34 -87 6 -145 41 -60 37 -63 -56 -46 -29 6 -71 19 -92 30 -32 17 -45
19 -75 10 -20 -5 -69 -10 -108 -10 -292 0 -459 260 -278 432 104 98 273 131
419 81z m1506 17 c79 -15 172 -64 214 -112 75 -88 78 -209 8 -290 -18 -20 -6
-66 32 -122 13 -20 20 -38 15 -41 -15 -9 -120 13 -164 35 -34 17 -46 18 -90 8
-78 -16 -204 -5 -269 25 -187 86 -238 266 -111 394 90 89 228 128 365 103z
m1565 -1 c113 -21 217 -91 255 -174 28 -61 24 -122 -12 -193 -35 -67 -34 -87
6 -146 14 -20 25 -42 25 -47 0 -17 -98 0 -159 27 -45 20 -59 23 -90 14 -59
-16 -173 -12 -242 10 -162 50 -257 200 -205 324 31 73 109 140 201 169 89 28
135 32 221 16z m-3850 -798 c76 -27 143 -78 179 -136 25 -40 30 -59 30 -110 0
-52 -5 -70 -31 -112 -30 -48 -31 -52 -18 -88 7 -21 22 -51 33 -66 12 -16 21
-31 21 -35 0 -14 -116 7 -165 30 -38 17 -57 21 -80 14 -48 -14 -197 -10 -241
6 -100 35 -172 92 -208 163 -20 41 -21 123 -1 171 31 72 111 137 210 168 64
20 206 17 271 -5z m1599 -14 c71 -33 130 -87 156 -142 33 -72 21 -170 -28
-227 -19 -21 -10 -65 23 -113 30 -45 30 -55 1 -55 -34 0 -139 29 -164 45 -16
11 -29 12 -54 5 -51 -15 -189 -12 -245 5 -105 31 -191 111 -215 198 -32 118
53 242 201 297 45 17 74 20 160 17 90 -2 114 -7 165 -30z m1558 5 c118 -53
182 -137 182 -238 0 -51 -5 -69 -31 -111 -30 -48 -31 -52 -18 -88 7 -21 22
-51 33 -66 12 -16 21 -31 21 -35 0 -13 -116 7 -165 30 -40 18 -57 21 -85 13
-19 -5 -77 -7 -130 -5 -79 3 -105 8 -155 31 -255 119 -227 392 50 484 64 21
238 12 298 -15z m1572 -5 c71 -33 130 -87 156 -142 33 -72 21 -170 -28 -227
-19 -21 -10 -65 23 -113 30 -44 30 -55 2 -55 -39 0 -136 26 -162 44 -19 12
-31 14 -52 6 -41 -16 -192 -13 -249 4 -105 32 -193 113 -216 199 -32 119 52
242 204 298 81 30 241 23 322 -14z m-3952 -768 c166 -54 255 -199 202 -326 -9
-21 -23 -45 -32 -55 -20 -22 -11 -73 22 -122 14 -20 25 -40 25 -43 0 -13 -123
8 -163 27 -39 20 -47 20 -119 9 -133 -21 -256 12 -344 93 -86 79 -106 170 -58
266 71 142 285 211 467 151z m1599 -11 c170 -78 231 -237 140 -366 -18 -24
-20 -35 -11 -64 5 -20 18 -47 29 -61 11 -14 20 -31 20 -37 0 -20 -105 -5 -161
22 -31 16 -54 22 -67 17 -42 -16 -139 -21 -197 -10 -261 48 -366 280 -197 433
48 44 70 56 142 80 82 27 226 20 302 -14z m1531 11 c166 -54 255 -199 202
-326 -9 -21 -23 -45 -32 -55 -20 -22 -11 -73 22 -122 14 -20 25 -40 25 -43 0
-13 -123 8 -162 28 -39 20 -46 20 -119 8 -133 -21 -257 12 -345 93 -88 80
-107 172 -56 269 73 140 285 207 465 148z m-3888 -790 c43 -16 76 -38 115 -78
93 -94 105 -192 34 -288 -23 -30 -23 -33 -9 -74 9 -24 21 -50 29 -59 35 -40
32 -43 -35 -38 -37 3 -83 15 -107 27 -39 20 -48 21 -103 10 -169 -33 -359 41
-418 165 -71 145 29 302 224 353 71 18 197 10 270 -18z m1497 20 c108 -23 201
-87 238 -165 31 -64 25 -155 -14 -214 -32 -48 -30 -72 10 -132 13 -21 24 -41
24 -44 0 -14 -122 5 -165 26 -41 20 -50 21 -97 10 -68 -17 -178 -7 -253 21
-105 39 -195 149 -195 239 0 73 63 167 144 215 85 49 202 66 308 44z m1633
-20 c43 -16 76 -38 115 -78 93 -93 105 -192 35 -286 -21 -28 -21 -33 -9 -76 8
-25 23 -54 34 -64 11 -10 20 -23 20 -28 0 -17 -123 -1 -168 22 -39 20 -48 21
-103 10 -169 -33 -359 41 -418 165 -71 145 29 302 224 353 71 18 197 10 270
-18z m1497 20 c108 -23 197 -85 237 -164 32 -65 27 -155 -13 -215 -32 -48 -30
-72 10 -132 13 -21 24 -41 24 -44 0 -14 -122 5 -163 25 -40 19 -50 20 -98 10
-71 -15 -180 -6 -254 22 -105 39 -195 149 -195 239 0 73 63 167 144 215 85 49
202 66 308 44z" />
    <path fill="#535353" d="M677 5729 c-169 -40 -267 -187 -208 -314 56 -122 247 -194 409 -155
45 10 54 9 90 -9 22 -11 59 -24 83 -27 39 -7 42 -6 34 12 -41 98 -41 97 -7
149 61 91 36 212 -57 281 -86 63 -230 90 -344 63z" />
    <path fill="#535353" d="M2219 5722 c-129 -43 -199 -123 -199 -228 0 -49 5 -69 29 -105 68
-108 239 -163 399 -128 43 9 54 8 91 -11 22 -12 59 -24 82 -27 l41 -6 -18 34
c-28 55 -34 96 -16 111 25 21 52 90 52 133 0 86 -62 164 -169 213 -74 34 -211
41 -292 14z" />
    <path fill="#535353" d="M3807 5729 c-169 -40 -267 -187 -208 -314 57 -122 247 -194 410 -155
46 11 55 10 95 -10 24 -11 61 -24 82 -27 34 -6 37 -4 29 13 -40 96 -40 95 -6
148 26 42 31 60 31 111 0 52 -5 69 -30 108 -72 107 -248 163 -403 126z" />
    <path fill="#535353" d="M5350 5722 c-126 -42 -192 -114 -198 -218 -4 -55 -1 -69 22 -108 65
-112 241 -170 404 -135 43 9 54 8 91 -11 22 -12 59 -24 82 -27 l41 -6 -20 39
c-30 61 -34 90 -15 105 26 22 53 90 53 134 0 86 -62 164 -169 213 -74 34 -211
41 -291 14z" />
    <path fill="#535353" d="M1472 4949 c-73 -14 -163 -69 -199 -122 -58 -86 -52 -171 18 -251 57
-65 142 -100 253 -104 50 -2 106 1 128 7 32 10 43 9 78 -9 22 -11 60 -24 85
-29 l44 -8 -18 36 c-33 65 -34 88 -7 124 144 189 -96 413 -382 356z" />
    <path fill="#535353" d="M3022 4945 c-98 -28 -168 -78 -204 -148 -28 -56 -22 -140 14 -195 32
-47 105 -97 172 -117 57 -17 184 -20 238 -5 30 9 42 7 70 -9 18 -10 49 -22 68
-26 19 -3 42 -9 51 -11 14 -4 12 4 -7 42 -31 60 -30 79 3 127 37 53 43 137 14
194 -27 54 -92 108 -159 133 -73 28 -191 34 -260 15z" />
    <path fill="#535353" d="M4594 4946 c-160 -39 -259 -165 -223 -284 24 -80 99 -146 199 -176
61 -18 192 -21 238 -5 25 8 37 7 71 -11 23 -11 61 -24 86 -29 l44 -8 -18 36
c-33 65 -34 88 -7 124 81 106 41 245 -90 314 -98 51 -196 64 -300 39z" />
    <path fill="#535353" d="M709 4170 c-107 -18 -195 -76 -234 -153 -32 -65 -32 -110 1 -176 58
-116 233 -182 392 -148 59 13 65 13 110 -9 26 -13 64 -26 85 -30 l38 -6 -20
33 c-35 61 -36 94 -5 135 38 50 46 142 16 201 -41 80 -126 133 -242 152 -72
12 -75 12 -141 1z" />
    <path fill="#535353" d="M2260 4166 c-153 -35 -240 -121 -240 -236 0 -83 53 -160 141 -206 78
-40 231 -51 308 -22 17 6 30 4 46 -6 19 -13 118 -46 136 -46 4 0 0 19 -11 43
-27 63 -27 77 4 130 42 70 45 124 12 191 -30 62 -82 106 -161 135 -69 26 -168
33 -235 17z" />
    <path fill="#535353" d="M3839 4170 c-108 -19 -195 -76 -234 -153 -32 -65 -32 -110 1 -176 58
-116 233 -182 392 -148 59 13 65 13 110 -9 26 -12 64 -25 84 -29 l38 -6 -19
33 c-34 58 -35 91 -6 134 33 48 38 72 33 140 -5 62 -38 110 -104 156 -73 50
-201 75 -295 58z" />
    <path fill="#535353" d="M5390 4167 c-111 -27 -183 -75 -222 -150 -30 -59 -23 -151 16 -201
39 -52 100 -94 165 -113 64 -20 201 -22 245 -4 23 9 33 9 51 -3 19 -13 118
-46 136 -46 4 0 0 19 -11 43 -27 63 -27 77 4 130 42 70 45 124 12 191 -59 120
-239 189 -396 153z" />
    <path fill="#535353" d="M1445 3377 c-71 -24 -122 -55 -158 -97 -107 -125 -48 -283 133 -354
60 -24 182 -31 245 -14 46 12 53 11 95 -10 25 -12 63 -25 84 -29 l38 -6 -15
24 c-8 13 -20 40 -26 60 -11 34 -9 41 18 84 56 88 49 170 -20 249 -59 67 -141
99 -259 103 -60 2 -110 -2 -135 -10z" />
    <path fill="#535353" d="M2993 3371 c-152 -52 -225 -174 -179 -296 48 -124 255 -205 413 -162
48 13 55 12 80 -4 28 -19 121 -45 129 -37 2 3 -2 18 -11 34 -29 55 -29 88 -1
129 33 49 40 74 34 135 -9 90 -90 172 -202 205 -69 21 -198 19 -263 -4z" />
    <path fill="#535353" d="M4575 3377 c-145 -48 -228 -151 -210 -258 12 -72 61 -129 145 -172
64 -33 88 -39 155 -43 49 -3 99 0 130 8 46 12 53 11 95 -10 25 -12 63 -25 84
-29 l38 -6 -15 24 c-8 13 -20 40 -26 60 -11 34 -9 41 18 84 56 88 49 170 -20
249 -59 67 -141 99 -259 103 -60 2 -110 -2 -135 -10z" />
    <path fill="#535353" d="M677 2599 c-128 -30 -227 -132 -227 -234 0 -162 216 -280 428 -236
53 12 61 11 92 -8 19 -11 55 -23 79 -27 41 -7 44 -6 36 12 -41 98 -41 97 -7
149 27 41 32 58 32 110 0 50 -5 69 -29 106 -67 107 -249 165 -404 128z" />
    <path fill="#535353" d="M2220 2592 c-76 -25 -134 -66 -170 -120 -25 -38 -30 -55 -30 -107 0
-50 5 -69 29 -106 68 -108 239 -163 399 -128 43 9 54 8 91 -11 22 -12 59 -24
82 -27 l41 -6 -20 39 c-30 61 -34 90 -15 105 26 22 53 90 53 134 0 86 -62 164
-169 213 -74 34 -211 41 -291 14z" />
    <path fill="#535353" d="M3807 2599 c-88 -21 -178 -87 -208 -154 -86 -189 150 -370 409 -315
53 11 61 10 92 -9 19 -11 55 -23 79 -27 41 -7 44 -6 36 12 -41 98 -41 97 -7
149 61 91 36 212 -57 281 -86 63 -230 90 -344 63z" />
    <path fill="#535353" d="M5350 2592 c-76 -25 -134 -66 -170 -120 -25 -38 -30 -55 -30 -107 0
-50 5 -69 29 -106 68 -108 239 -163 399 -128 43 9 54 8 91 -11 22 -12 59 -24
82 -27 l41 -6 -20 39 c-30 61 -34 90 -15 105 26 22 53 90 53 134 0 86 -62 164
-169 213 -74 34 -211 41 -291 14z" />
    <path fill="#535353" d="M1473 1820 c-121 -26 -218 -110 -238 -209 -21 -99 65 -209 199 -254
56 -19 181 -22 237 -7 30 9 45 6 90 -14 30 -13 69 -26 87 -30 l32 -6 -18 38
c-35 69 -35 87 0 137 28 39 33 55 33 103 0 98 -56 169 -177 222 -54 24 -180
34 -245 20z" />
    <path fill="#535353" d="M3020 1815 c-147 -42 -229 -138 -218 -256 9 -89 90 -171 202 -204 57
-17 184 -20 238 -5 30 9 42 7 70 -9 18 -10 49 -22 68 -26 19 -3 42 -9 51 -11
14 -4 12 4 -7 42 -31 60 -30 79 2 126 80 115 12 270 -145 329 -74 28 -189 34
-261 14z" />
    <path fill="#535353" d="M4603 1820 c-119 -24 -217 -110 -238 -209 -20 -93 66 -209 185 -249
70 -24 188 -29 252 -12 31 9 44 7 78 -10 22 -11 60 -24 85 -29 l44 -8 -18 36
c-33 65 -34 88 -8 124 143 191 -94 413 -380 357z" />
    <path fill="#535353" d="M709 1040 c-107 -18 -195 -76 -234 -153 -32 -65 -32 -110 1 -176 58
-116 233 -182 392 -148 59 13 65 13 110 -9 26 -13 64 -26 85 -30 l38 -6 -20
33 c-25 43 -37 104 -22 114 24 14 51 86 51 135 0 119 -97 210 -256 239 -64 12
-78 12 -145 1z" />
    <path fill="#535353" d="M2260 1036 c-153 -35 -240 -121 -240 -236 0 -83 53 -160 141 -206 77
-40 231 -51 306 -23 16 6 36 2 70 -15 27 -13 65 -27 85 -30 l37 -7 -19 43
c-27 64 -27 78 4 131 42 70 45 124 12 191 -30 62 -82 106 -161 135 -69 26
-168 33 -235 17z" />
    <path fill="#535353" d="M3839 1040 c-107 -18 -195 -76 -234 -153 -27 -56 -31 -96 -13 -148
43 -129 232 -211 401 -176 65 13 69 13 115 -9 26 -13 64 -26 85 -30 l38 -6
-20 33 c-25 43 -37 104 -22 114 24 14 51 86 51 135 0 121 -101 214 -263 240
-69 11 -72 11 -138 0z" />
    <path fill="#535353" d="M5404 1039 c-108 -18 -197 -76 -236 -152 -30 -59 -23 -151 16 -201
39 -52 100 -94 165 -113 64 -19 201 -22 243 -5 23 10 36 7 75 -12 27 -13 65
-27 85 -30 l37 -7 -19 43 c-27 64 -27 78 4 131 42 70 45 124 12 191 -57 116
-223 183 -382 155z" />
    <path fill="#535353" d="M1240 6230 c22 -77 83 -136 180 -174 60 -24 182 -31 244 -14 45 13
52 12 95 -9 26 -13 64 -26 85 -30 l38 -6 -15 24 c-8 13 -20 41 -26 61 -11 33
-10 40 14 76 14 21 30 53 35 70 l9 32 -334 0 -334 0 9 -30z" />
    <path fill="#535353" d="M2800 6245 c0 -30 40 -93 81 -129 83 -70 236 -103 346 -73 48 13 55
12 80 -4 27 -18 120 -45 128 -37 3 3 -4 23 -15 46 -22 45 -26 87 -9 98 13 7
48 82 49 102 0 9 -73 12 -330 12 -290 0 -330 -2 -330 -15z" />
    <path fill="#535353" d="M4370 6230 c22 -77 83 -136 180 -174 60 -24 182 -31 245 -14 47 12
53 12 90 -9 22 -12 60 -25 85 -29 41 -7 44 -6 32 9 -8 9 -20 37 -28 62 -13 44
-12 48 12 84 13 21 29 52 34 69 l9 32 -334 0 -334 0 9 -30z" />
    <path fill="#535353" d="M5930 6245 c0 -30 40 -93 81 -129 48 -41 123 -72 198 -82 l51 -7 0
117 0 116 -165 0 c-142 0 -165 -2 -165 -15z" />
    <path fill="#535353" d="M0 4716 l0 -246 38 0 c20 0 53 4 72 10 27 8 42 6 75 -10 36 -17 125
-42 125 -35 0 2 -9 22 -20 46 -26 58 -25 76 6 121 35 50 43 122 20 183 -33 84
-141 154 -265 171 l-51 7 0 -247z" />
    <path fill="#535353" d="M6152 4944 c-66 -17 -102 -36 -147 -76 -69 -60 -94 -154 -61 -232 34
-81 147 -153 257 -163 l59 -6 0 247 0 246 -27 -1 c-16 0 -52 -7 -81 -15z" />
    <path fill="#535353" d="M0 3146 l0 -246 23 0 c12 0 46 6 74 13 47 13 55 12 80 -4 28 -19 121
-45 129 -37 2 3 -2 18 -11 34 -24 47 -29 92 -12 112 46 53 60 140 33 206 -34
81 -148 153 -258 163 l-58 6 0 -247z" />
    <path fill="#535353" d="M6121 3370 c-113 -41 -180 -112 -189 -200 -12 -132 103 -243 277
-266 l51 -7 0 247 0 246 -42 0 c-24 -1 -67 -10 -97 -20z" />
    <path fill="#535353" d="M0 1586 l0 -246 38 0 c20 0 54 5 74 10 31 9 42 8 63 -6 14 -9 51 -23
81 -30 51 -12 55 -11 48 4 -4 9 -14 36 -22 58 -17 45 -19 38 29 124 25 46 25
119 -1 169 -40 79 -143 141 -259 157 l-51 7 0 -247z" />
    <path fill="#535353" d="M6152 1814 c-66 -17 -102 -36 -147 -76 -69 -60 -94 -154 -61 -232 34
-81 147 -153 257 -163 l59 -6 0 247 0 246 -27 -1 c-16 0 -52 -7 -81 -15z" />
    <path fill="#535353" d="M0 130 l0 -130 166 0 167 0 -5 45 c-13 110 -154 215 -290 215 l-38 0
0 -130z" />
    <path fill="#535353" d="M1445 247 c-107 -36 -181 -99 -203 -176 -24 -77 -51 -71 323 -71 374
0 347 -6 323 72 -18 59 -77 120 -150 153 -53 24 -79 29 -158 32 -60 2 -110 -2
-135 -10z" />
    <path fill="#535353" d="M2993 241 c-108 -37 -181 -112 -191 -196 l-5 -45 333 0 333 0 -5 45
c-10 86 -93 168 -202 200 -69 21 -198 19 -263 -4z" />
    <path fill="#535353" d="M4575 247 c-107 -36 -181 -99 -203 -176 -24 -77 -51 -71 323 -71 374
0 347 -6 323 72 -18 59 -77 120 -150 153 -53 24 -79 29 -158 32 -60 2 -110 -2
-135 -10z" />
    <path fill="#535353" d="M6123 241 c-108 -37 -181 -112 -191 -196 l-5 -45 167 0 166 0 0 130
0 130 -42 0 c-24 -1 -66 -9 -95 -19z" />
  </g>
</svg>